<?xml version="1.0" encoding="UTF-8"?>
<svg id="Layer_1" data-name="Layer 1" xmlns="http://www.w3.org/2000/svg" viewBox="0 0 2000 5661.63">
  <defs>
    <style>
      .cls-1 {
        fill: none;
      }

      .cls-2 {
        fill: #fafdfd;
      }
    </style>
  </defs>
  <rect class="cls-1" x="-1000" y="1000" width="4000" height="2000" transform="translate(-1000 3000) rotate(-90)"/>
  <path class="cls-2" d="M1321.4,578.35c-9.08,4.92-13.45,16.92-9.78,26.8,32.61,87.67,59.22,368.64,25.01,592.34-33.97,222.16-135.48,507.82-218.19,675.19-43.01,87.03-87,196.14-119.93,282.59,1.47-44.23-.85-88.17-6.94-130.88-8.03-56.3-22.85-112.39-44.06-166.72-3.83-9.8-14.23-13.62-23.24-8.54-9.01,5.08-13.22,17.15-9.39,26.95,66.81,171.16,52.86,318.71,29.72,427.01-.35,1.17-.6,2.35-.76,3.52-6.55,30.18-13.77,57.26-20.07,80.87-1.13,4.25-2.34,8.74-3.61,13.46-15.41,57.29-41.21,153.17-56.31,280.32-6.8,57.25-10.79,115.49-11.99,174.49-.07.9-.08,1.78-.05,2.66-1.84,97.84,4.01,197.75,17.56,298.67,27.26,203.05,78.09,364.92,115.94,464.95,41.15,108.75,75.48,168.71,76.92,171.21,5.14,8.92,16.06,10.87,24.39,4.37,3.65-2.85,6.21-6.86,7.48-11.21,1.63-5.57,1.18-11.7-1.7-16.71-.34-.59-34.57-60.48-74.67-166.64-36.97-97.87-86.63-256.24-113.3-454.89-14.34-106.85-18.93-203.6-17.44-290.08,59.47-247.28,160.42-428.27,300.05-537.96,3.63-2.85,6.16-6.84,7.43-11.18,1.64-5.59,1.18-11.75-1.73-16.77-5.17-8.9-16.1-10.82-24.41-4.28-75.68,59.45-140.94,138.49-193.98,234.94-29.02,52.77-54.88,111.7-77.37,176.18,14.3-130.35,40.34-227.17,57.03-289.21,1.28-4.75,2.49-9.27,3.64-13.56,6.13-22.98,13.64-51.15,20.56-83.41,6.47-18.69,90.59-260.37,170.87-422.8,44.58-90.2,90.84-205.18,130.25-323.76,11.15-33.54,21.51-66.65,31.04-99.14,24.81-84.56,43.95-164.82,56.44-236.89,10.15-19.66,73.98-137.77,168.19-192.65,4.74-2.76,8.11-7.45,9.64-12.69,1.37-4.67,1.29-9.79-.57-14.37-3.95-9.73-14.41-13.38-23.37-8.16-59.49,34.65-106.91,90.88-136.21,131.94-1.84,2.57-3.62,5.11-5.36,7.63,9.49-90.6,11.43-193.82,5.35-297.01-6.48-109.94-21.81-208.64-40.01-257.59-3.68-9.88-14.01-13.9-23.09-8.98Z"/>
  <path class="cls-2" d="M794.33,3047.11c1.9-161.2-370.51-398.09-510.75-320.27-23.46,156.76,371.54,408.12,510.58,320.54l.17-.27Z"/>
  <path class="cls-2" d="M812.07,2642.55c50.4-153.13-225.78-488.88-382.95-456.96-69.62,142.4,222.74,502.19,381.72,460.6l1.23-3.64Z"/>
  <path class="cls-2" d="M959.53,3131.85c143.52,34.32,424.27-294.17,375.41-486.66-154.38-35.91-430.14,317.73-375.41,486.66Z"/>
  <path class="cls-2" d="M1257.18,1800.74c104.9,103.79,518.77-25.02,576.84-214.94-113.36-110.78-536,42.13-576.84,214.94Z"/>
  <path class="cls-2" d="M1228.16,1519.41c69.26-130.3-207.09-512.4-374.42-470.23-59.08,153.5,197.17,480.79,374.42,470.23Z"/>
  <path class="cls-2" d="M1306.27,958.03c16.88-136.33-275.41-420.04-469.39-377.48-40.93,153.13,293.74,437.69,469.39,377.48Z"/>
  <path class="cls-2" d="M1342.99,621.06c91.18-218.75-42.26-553.18-228.89-621.06-116.53,107.44,12.42,545.73,228.89,621.06Z"/>
  <path class="cls-2" d="M1414.6,818.61c147.02,20.02,435.63-285.87,386.02-484.12-158.67-26.94-440.75,306.13-386.02,484.12Z"/>
  <path class="cls-2" d="M818.88,1847.49c61.22,25.33,96.42,91.02,73.05,143.6-23.37,52.59-98.19,70.44-154.18,46.18-60.05-26.01-94.19-90.7-70.81-143.29,23.37-52.59,97.57-68.99,151.94-46.5Z"/>
  <path class="cls-2" d="M889.17,1602.43c23.85,61.81.52,132.59-53.69,151.91-54.21,19.31-118.71-22.59-139.73-79.87-22.54-61.43.8-130.76,55-150.07,54.21-19.31,117.24,23.14,138.41,78.04Z"/>
  <path class="cls-2" d="M1139.93,1759.05c-20.99,62.84-84.06,102.55-138.15,82.91-54.09-19.64-77.12-93.02-56.84-150.58,21.75-61.72,83.9-100.29,137.99-80.65,54.09,19.64,75.64,92.52,57,148.32Z"/>
  <path class="cls-2" d="M1734.56,1080.99c55.11,42.79,72.31,119.58,33.64,166.78-38.67,47.2-119.84,44.72-169.94,4.46-53.72-43.17-70.12-118.64-31.45-165.84,38.67-47.2,118.81-43.41,167.75-5.4Z"/>
  <path class="cls-2" d="M1686.67,775.24c69.19-16.32,141.04,18.95,153.68,79.55,12.65,60.61-41.28,123.18-105.25,137.16-68.59,14.99-138.89-20.08-151.54-80.68-12.64-60.61,41.66-121.53,103.1-136.03Z"/>
  <path class="cls-2" d="M1383.56,2312.5c66.21,34.68,94.94,114.7,64.82,172.21-30.12,57.51-108.63,66.93-169.91,35.56-65.71-33.64-99.46-108.94-69.33-166.44,30.12-57.51,108.22-76.01,174.42-41.33Z"/>
  <path class="cls-2" d="M1202.64,2049.03c50.8-54.83,134.08-66.31,180.54-20.97,46.46,45.34,36.01,131.48-11.6,181.2-51.06,53.32-132.87,64.07-179.33,18.73-46.46-45.34-34.72-130.26,10.39-178.95Z"/>
  <path class="cls-2" d="M1535.74,2118.76c75.11-14.09,144.59,26.49,156.53,90.15s-41.31,123.92-110.37,137.54c-74.06,14.6-148.6-23.24-160.54-86.9-11.94-63.66,39.27-126.69,114.38-140.79Z"/>
  <path class="cls-2" d="M1075.94,4191.09c-1.13-137.37-328.06-380.33-514.8-312.73-20.51,157.17,348.56,395.43,514.8,312.73Z"/>
  <path class="cls-2" d="M1220.68,4428.54c143.52,34.32,424.27-294.17,375.41-486.66-154.38-35.91-430.14,317.73-375.41,486.66Z"/>
  <path class="cls-2" d="M1171.17,3451.05c44.8-55.19,123.23-71.17,170.27-30.91,47.04,40.26,42.57,122.74.47,172.88-45.15,53.77-122.22,68.96-169.26,28.71-47.04-40.26-41.26-121.67-1.48-170.68Z"/>
  <path class="cls-2" d="M1412.35,5636.42c-50.91-79.17-90.3-154.08-121.03-223.44-30.47-43.74-46.45-95.88-56.54-148.94-35.97-113.45-48.6-203.5-56.7-261.28-.62-4.44-1.21-8.66-1.78-12.66-3.06-21.44-6.81-47.73-12.65-77.2-1.12-18-15.1-250.93-2.58-416.4,6.95-91.89,6.05-205.05-2.53-318.64-2.43-32.13-5.42-63.6-8.94-94.25-9.17-79.76-21.93-153.81-37.73-218.53,1.92-20.19,16.06-142.56,82.23-223.68,3.33-4.08,4.66-9.25,4.09-14.2-.51-4.41-2.52-8.64-5.98-11.76-7.33-6.62-18.38-5.73-24.68,1.98-41.79,51.22-64.25,115.88-75.73,161.1-.72,2.83-1.4,5.62-2.06,8.37-25.6-79.03-62.96-165.74-107.71-249.41-47.68-89.14-99.27-165.59-134.64-199.52-7.14-6.85-18.21-6.31-24.72,1.2-6.51,7.51-6,19.15,1.14,26,63.36,60.77,194.49,284.8,247.75,483.99,52.89,197.82,67.51,473.91,54.61,644.41-6.71,88.66-5.94,196.07-3.56,280.46-1.94-4.7-3.95-9.37-5.99-14.02,7.59,34.46,7.95,70.4,8.53,105.61.22,13.32.5,26.65,1.29,39.95.85,3.99,1.68,7.95,2.46,11.86.12,1.11.34,2.18.64,3.22,3.44,17.58,6.14,34.21,8.47,49.66.49,1.46.99,2.91,1.51,4.36,1.46,4.05,1.65,8.16.9,12.08.43,2.99.85,5.92,1.26,8.8.57,3.97,1.15,8.16,1.77,12.57,7.5,53.51,20.04,143.07,54.33,254.66,15.44,50.24,33.84,100.26,55.11,149.85.28.77.6,1.52.97,2.23,35.41,82.18,78.71,163.2,129.49,242.17.99,1.53,1.97,3.06,2.96,4.58,2.12-6.52,6.55-12.32,11.95-15.98,5.45-3.7,11.9-4.47,18.01-3.16-1.31-2.02-2.62-4.04-3.93-6.07Z"/>
  <path class="cls-2" d="M833.97,3201.72c32.25,57.88,19.04,131.22-31.94,157.92-50.98,26.7-120.7-5.78-149.52-59.57-30.9-57.68-17.48-129.58,33.5-156.28,50.98-26.7,119.32,6.54,147.96,57.93Z"/>
</svg>